# xmcd
#
# Track frame offsets:
#	150
#	29417
#	49091
#	66148
#	101307
#	121985
#	145791
#	167187
#	196900
#	219182
#	240616
#	277225
#	301928
#	330573
#
# Disc length: 4734 seconds
#
# Revision: 2
# Processed by: cddbd v1.5.2PL0 Copyright (c) Steve Scherf et al.
# Submitted via: EasyCDDAExtractor 11.6.0.1
#
DISCID=c5127c0e
DTITLE=Various Artist - Coffee Shop - The Chillin Sessions 4
DYEAR=2000
DGENRE=Trance
TTITLE0=Lisa Shaw - If I Could (Restless Soul Remix)
TTITLE1=Grand Unified - Shakeup (Jadell Remix)
TTITLE2=Smokee - Dual Power
TTITLE3=Wordless People - Positivity
TTITLE4=Casa La Luna - Music's My Life (Noel Haze Mix)
TTITLE5=The Meateaters - You Were My Sunshine (The Herbaliser Remix)
TTITLE6=Electric Soul - Everyday (DJ Spinna Mix)
TTITLE7=Trademark - Cold Fusion
TTITLE8=Indica - Magical Thing
TTITLE9=Boxwise - Sidewalk Soul
TTITLE10=Voom Voom - Poppen
TTITLE11=Hosseger - Sunshine Blues (Golden Sun Remix)
TTITLE12=King Kooba - Nearly
TTITLE13=Solar Sound Club - One Time Too Many
EXTD=YEAR: 2000
EXTT0=
EXTT1=
EXTT2=
EXTT3=
EXTT4=
EXTT5=
EXTT6=
EXTT7=
EXTT8=
EXTT9=
EXTT10=
EXTT11=
EXTT12=
EXTT13=
PLAYORDER=
